<?xml version="1.0" encoding="UTF-8"?>
<svg id="Ebene_1" xmlns="http://www.w3.org/2000/svg" version="1.1" viewBox="0 0 428 240">
  <!-- Generator: Adobe Illustrator 30.2.1, SVG Export Plug-In . SVG Version: 2.1.1 Build 1)  -->
  <defs>
    <style>
      .st0 {
        fill: #fff;
      }
    </style>
  </defs>
  <path class="st0" d="M179.7,64.5c1.9.7,2,1.8,2,3.4,0,9.1,0,7.6,0,16.7,0,.6,0,1.3.2,1.9-2.8,2.2-5.3,4.8-7.4,7.8-3.9,5.4-6.3,11.4-6.2,18.2,0,2.8.5,5.6,1.4,8.2,1.1,2.5,2.6,4.9,4.4,7,1.7,2,3.6,3.8,5.8,5.4.4.3.6.6.3,1-.8,1.3-1.2,2.8-1,4.3,0,2.5,1.7,4.7,4.1,5.4.7.2,1.5.4,2.3.5.8.1,1,.3,1,1.1,0,2.3,1,4.6,2.6,6.3,1.4,1.4,2.9,2.7,4.7,3.6,1.3.9,2.8,1.1,4.3.8.4-.1.9,0,1.1.5.7,1.2,1.9,2.1,3.2,2.4,2.1.7,4.3,1.1,6.6,1.1,1,0,2-.3,2.8-1,.3-.4.9-.4,1.2,0,0,0,0,0,0,0,.7.6,1.5.9,2.4.9,2.7,0,5.4-.4,7.9-1.5,1-.4,1.8-1,2.3-1.9.4-.6.7-.8,1.4-.5,1.1.4,2.3.2,3.3-.3,1.7-.9,3.3-1.9,4.8-3.2,2.2-1.7,3.6-4.2,3.9-7,0-.6.2-.6.9-.6.8,0,1.6,0,2.4-.1,3.5-.8,5.6-4.3,4.8-7.8-.1-.5-.3-1-.6-1.5-.3-.7-.3-.7.3-1.1,1.7-1.2,3.5-2.4,5.1-3.8,3-2.5,5.3-5.7,6.7-9.3,2.3-6.3,2.2-13.3-.4-19.5-2.5-6.3-6.7-11.7-12.2-15.8,0-.5,0-1.1,0-1.8v-18.7c11.7-5.2,15.9-13.2,11.9-22.4-2.2-5.8-7.8-9.5-14-9.3-3.3,0-6.7.8-9.7,2.1-4.2-8.6-10.7-13.6-20.2-13.6h-.2c-9.7,0-16.1,5.4-20.1,14l-1.3-.7c-2.6-1.3-5.4-2-8.3-2.1-6.4,0-12.2,3.9-14.5,9.9-3.7,8.6.8,18,10.3,21.2ZM246.3,90.2s0,0,0,0c.4.4.8.8,1.1,1.1h0c.4.4.7.8,1.1,1.3v.2c.5.4.8.7,1,1.1,0,0,.2.2.2.3.3.4.6.8.9,1.2,0,0,0,0,0,.1.3.5.7,1,1,1.5,1.3,2.1,2.3,4.3,3.1,6.7,1.4,4.3,1.5,8.9.4,13.3-1.3,4.9-4.2,9.1-8.2,12.2-1.1.8-2.2,1.6-3.3,2.3-.6.4-1.2.8-1.7,1.2s-.6,1.1,0,1.8c1,.9,1.5,2.3,1.3,3.6-.2,1.8-1.7,3.2-3.6,3.2h-1.9c-1.2,0-2.2.8-2.3,2,0,0,0,0,0,.1,0,.3,0,.7,0,1,0,1.8-.9,3.5-2.4,4.5-1.5,1.1-3.1,2.2-4.7,3.3-.1,0-.2.1-.4.2-1,.4-1.6,0-1.6-1,0-1.6,0-3.2,0-4.8,0-.4,0-.9-.1-1.3,0-.6-.5-1-1.1-.9-.2,0-.4,0-.5.2-.5.3-.8.9-.8,1.5,0,1.7,0,3.5,0,5.2,0,1.7-1,3.1-2.6,3.6-1.7.4-3.4.7-5.1,1-.2,0-.5,0-.7,0-1.3,0-1.8-.6-1.9-1.9,0-1.8,0-3.5-.1-5.3,0-1-.5-1.5-1.4-1.4-.5,0-.9.3-1,.8-.2.7-.3,1.5-.3,2.2v3.9c0,.9-.7,1.7-1.6,1.7-2.2.1-4.4-.3-6.3-1.3-1.4-.7-2.3-2.1-2.2-3.7v-4.9c0-.7-.4-1.4-1.1-1.7-.4-.2-.8,0-1.1.3-.6.8-.9,1.7-.8,2.7,0,1.3,0,2.6,0,3.9s-.2.8-.9.8c-.2,0-.4-.1-.6-.2-1.7-.9-3.2-2-4.5-3.4-1.3-1.2-2-2.9-2-4.6,0-.5,0-.9-.1-1.4-.1-1-.9-1.8-1.9-1.9-.6-.1-1.3-.1-1.9-.2-1.4,0-2.6-.9-3.1-2.3-.5-1.4-.3-2.9.7-4,.2-.2.3-.4.5-.6.5-.4.6-1.1.2-1.6,0,0-.1-.2-.2-.2-1-.9-2-1.8-3-2.6-3.6-3-6.3-6.9-7.8-11.3-1-3.4-1.3-7-.6-10.5.9-5.6,3.7-10.1,7.5-14.2.6-.7,1.2-1.3,1.9-1.9.3-.3.6-.6,1-.9s.6-.6,1-.8h0c.5.4,1,.7,1.6.9,1.5.7,3.1,1.2,4.7,1.7,7.5,1.8,15.2,2.7,22.9,2.7,2,0,4,0,6-.2,7.5-.4,15-1,22.1-3.8,1.4-.4,2.6-1.1,3.6-2.1.1,0,.2.2.4.3.4.3.8.7,1.2,1.1h0ZM172.6,44.6c1.8-4.6,6.3-7.7,11.2-7.7,2.3,0,4.7.6,6.7,1.7l.8.4.6.3,3.3,1.6,1.5-3.3c3.7-8,9.2-11.9,16.9-11.9h.2c7.6,0,13.2,3.8,17,11.6l1.4,3,3.1-1.2c2.7-1.1,5.5-1.8,8.4-1.8,5.1,0,8.7,2.4,10.8,7.2,1.5,3.6,1.5,6.8,0,9.7-1.6,3.1-5.2,5.9-10.1,8.2l-2.1.9v21c0,.8,0,1.6-.2,2.4,0,0,0,0-.1.1h0c-.7.4-1.4.7-2.1,1-6.7,2.7-14,3.2-21,3.6-2,0-4,.1-5.9.1-7.4,0-14.8-.8-22-2.5-1.4-.4-2.7-.9-4.1-1.5h-.2c-1.2-.5-1.6-1-1.6-2.7,0-5.3,0-10.7,0-16v-1.4.6-1.3c0-1.5,0-.5,0,.5.1-2.8-1.7-5.2-4.4-6-3.6-1.1-6.6-3.7-8.2-7.1-1.3-3-1.3-6.5,0-9.5Z"/>
  <path class="st0" d="M218.3,131.6c-.5-.9-1.2-1.8-1.9-2.6-.6-.7-1.3-1.3-2-1.8-.7-.5-1.6-.5-2.2,0-.5.3-1,.7-1.4,1.1-1.3,1.3-2.3,2.7-3.1,4.4-.3.6-.5,1.3-.7,2,0,1.4.7,2.2,1.7,2.2.6,0,1.1-.2,1.6-.5,1-.6,1.9-1.4,2.6-2.3.2-.3.5-.4.8-.2,0,0,.1,0,.2.1l.7.6c.8.7,1.6,1.5,2.4,2.1.7.5,1.5.5,2.2,0,.6-.4.8-1.2.6-1.9-.3-1.2-.8-2.3-1.5-3.3Z"/>
  <path class="st0" d="M193.4,102.2c-8.3.1-14.9,6.9-14.8,15.2,0,0,0,0,0,0,.2,8.1,6.8,14.5,14.9,14.4,8.5,0,14.7-6.2,14.7-15.1,0-8.1-6.6-14.6-14.6-14.6,0,0-.1,0-.2,0Z"/>
  <path class="st0" d="M234.4,102.7c-8.2,0-15,6.3-15.3,14.5-.3,4.8,1.9,9.3,5.8,12,3.9,2.8,8.8,3.5,13.3,2.1,7.7-1.9,12.4-9.7,10.5-17.4-.4-1.7-1.1-3.3-2.1-4.7-2.6-4.1-7.3-6.6-12.2-6.5Z"/>
  <path class="st0" d="M286.4,131c-3.7-.2-6.9-.4-10.1-.4-5.5,0-10.7,1.3-14.8,5.1-14.5,13.2-28.9,26.5-43.2,39.6h0c-.4.4-.5,1-.3,1.5-1,0-2,.3-2.7,1l-4.9,4.5-4.9-4.5c-1.5-1.4-4-1.3-5.4.2l-.3.4-9.9-9.1h.1c2.6-3.4,2.1-8.2-1.1-10.8h-.1c0,0-36.2-29.3-36.2-29.3h0c-.5-.4-1.2-.4-1.6.1l-1.5,1.7c-.5.5-.4,1.3,0,1.7,0,0,0,0,0,0l27.2,25c.2.2.2.6,0,.8,0,0,0,0,0,0l-4.6,5c-.2.2-.6.2-.8,0,0,0,0,0,0,0l-27.2-25c-.5-.4-1.3-.4-1.7,0l-1.5,1.7c-.4.5-.4,1.2,0,1.7l32.4,33.6h.1c2.9,3.1,7.7,3.2,10.8.3h.1c0-.1,9.9,9,9.9,9l-.3.3c-1.4,1.6-1.3,4,.2,5.4l3.8,3.5-10.9,10c-2,1.8-2.1,4.9-.3,6.9l5,5.5c1.8,2,4.9,2.1,6.9.3h0s12-11,12-11l11.9,10.9c2,1.8,5.1,1.7,6.9-.3,0,0,0,0,0,0l5-5.5c1.8-2,1.7-5.1-.3-6.9h0s-10.8-9.9-10.8-9.9l3.7-3.4c.7-.7,1.2-1.6,1.2-2.5l3.2,3.5,7,8.6.6.8c.4.6,1.2.7,1.8.3,0,0,0,0,.1-.1,20.3-20.1,35.9-42.4,46.8-68.3.3-.7,0-1.4-.7-1.7-.1,0-.3,0-.4,0ZM183.9,173l-1.3,1.3c-2.3,2.2-6,2.2-8.2-.1l-31.6-32.8h-.1c-.1-.3-.1-.6,0-.8h0c.2-.2.5-.2.8,0l26.4,24.2c1,.9,2.5.8,3.4-.1l4.6-5c.9-1,.8-2.5-.2-3.4l-26.4-24.2c-.2-.2-.2-.5,0-.7h0c.2-.2.5-.3.7-.1h0c0,0,35.5,28.7,35.5,28.7,2.5,2,2.8,5.7.8,8.1l-1.2,1.4,11.1,10.2-3.4,3.7-11.1-10.2ZM284.3,134.1c-10.3,23.5-24.6,44.4-43.8,63.8-.2.3-.6.3-.9,0,0,0,0,0,0,0l-6.5-8-12-13.2c-.2-.2-.2-.6,0-.9l9.7-8.9c10.5-9.7,21.4-19.7,32.2-29.5,3.3-3,7.6-4.5,13.2-4.5h.4c1.8,0,5.4.2,7.1.3.3,0,.6.2.7.5,0,.1,0,.3,0,.4h0Z"/>
</svg>